<svg width="32" height="32" viewBox="0 0 32 32" fill="none" xmlns="http://www.w3.org/2000/svg">
<path d="M27.2001 1.6001H4.8001C3.0401 1.6001 1.6001 3.0401 1.6001 4.8001V27.2001C1.6001 28.9617 3.0401 30.4001 4.8001 30.4001H16.0001V19.2001H12.8001V15.2401H16.0001V11.9601C16.0001 8.4977 17.9393 6.0657 22.0257 6.0657L24.9105 6.0689V10.2369H22.9953C21.4049 10.2369 20.8001 11.4305 20.8001 12.5377V15.2417H24.9089L24.0001 19.2001H20.8001V30.4001H27.2001C28.9601 30.4001 30.4001 28.9617 30.4001 27.2001V4.8001C30.4001 3.0401 28.9601 1.6001 27.2001 1.6001Z" fill="white"/>
</svg>
