<svg width="32" height="32" viewBox="0 0 32 32" fill="none" xmlns="http://www.w3.org/2000/svg">
<path fill-rule="evenodd" clip-rule="evenodd" d="M7.74839 1.79883C6.17021 1.79883 4.65665 2.4256 3.54049 3.54132C2.42434 4.65704 1.79699 6.17037 1.79639 7.74854V23.6205C1.79639 25.1991 2.42347 26.713 3.53969 27.8292C4.6559 28.9455 6.16982 29.5725 7.74839 29.5725H23.6204C25.1986 29.5719 26.7119 28.9446 27.8276 27.8284C28.9433 26.7123 29.5701 25.1987 29.5701 23.6205V7.74854C29.5695 6.17077 28.9425 4.65778 27.8268 3.54213C26.7111 2.42647 25.1982 1.79943 23.6204 1.79883H7.74839ZM25.3324 7.75769C25.3324 8.21234 25.1518 8.64838 24.8303 8.96987C24.5088 9.29136 24.0728 9.47197 23.6181 9.47197C23.1634 9.47197 22.7274 9.29136 22.4059 8.96987C22.0844 8.64838 21.9038 8.21234 21.9038 7.75769C21.9038 7.30303 22.0844 6.86699 22.4059 6.5455C22.7274 6.22401 23.1634 6.0434 23.6181 6.0434C24.0728 6.0434 24.5088 6.22401 24.8303 6.5455C25.1518 6.86699 25.3324 7.30303 25.3324 7.75769ZM15.6867 10.9303C14.4258 10.9303 13.2165 11.4312 12.3249 12.3228C11.4333 13.2144 10.9324 14.4236 10.9324 15.6845C10.9324 16.9455 11.4333 18.1547 12.3249 19.0463C13.2165 19.9379 14.4258 20.4388 15.6867 20.4388C16.9476 20.4388 18.1569 19.9379 19.0485 19.0463C19.9401 18.1547 20.441 16.9455 20.441 15.6845C20.441 14.4236 19.9401 13.2144 19.0485 12.3228C18.1569 11.4312 16.9476 10.9303 15.6867 10.9303ZM8.64439 15.6845C8.64439 13.8174 9.3861 12.0268 10.7064 10.7065C12.0266 9.38626 13.8173 8.64454 15.6844 8.64454C17.5515 8.64454 19.3422 9.38626 20.6624 10.7065C21.9827 12.0268 22.7244 13.8174 22.7244 15.6845C22.7244 17.5517 21.9827 19.3423 20.6624 20.6626C19.3422 21.9828 17.5515 22.7245 15.6844 22.7245C13.8173 22.7245 12.0266 21.9828 10.7064 20.6626C9.3861 19.3423 8.64439 17.5517 8.64439 15.6845Z" fill="white"/>
</svg>
