<svg width="32" height="32" viewBox="0 0 32 32" fill="none" xmlns="http://www.w3.org/2000/svg">
<path d="M27.8667 2.6665H4.13341C3.74443 2.6665 3.37138 2.82103 3.09632 3.09608C2.82127 3.37113 2.66675 3.74419 2.66675 4.13317V27.8665C2.66675 28.2555 2.82127 28.6285 3.09632 28.9036C3.37138 29.1786 3.74443 29.3332 4.13341 29.3332H16.9067V18.9998H13.4401V14.9998H16.9067V11.9998C16.8349 11.2955 16.9181 10.584 17.1504 9.91522C17.3826 9.24643 17.7584 8.63656 18.2514 8.12839C18.7443 7.62021 19.3424 7.22602 20.0038 6.97349C20.6653 6.72095 21.3739 6.61617 22.0801 6.6665C23.1179 6.65934 24.1552 6.71276 25.1867 6.8265V10.4265H23.0667C21.3867 10.4265 21.0667 11.2265 21.0667 12.3865V14.9598H25.0667L24.5467 18.9598H21.0667V29.3332H27.8667C28.0594 29.3332 28.2501 29.2952 28.428 29.2215C28.606 29.1478 28.7676 29.0398 28.9038 28.9036C29.04 28.7674 29.1481 28.6057 29.2218 28.4278C29.2955 28.2498 29.3334 28.0591 29.3334 27.8665V4.13317C29.3334 3.94056 29.2955 3.74985 29.2218 3.5719C29.1481 3.39396 29.04 3.23227 28.9038 3.09608C28.7676 2.95989 28.606 2.85185 28.428 2.77815C28.2501 2.70444 28.0594 2.6665 27.8667 2.6665Z" fill="black"/>
</svg>
