<svg width="80" height="80" viewBox="0 0 80 80" fill="none" xmlns="http://www.w3.org/2000/svg">
<path d="M25.0067 0H33.6V3.59333H28.6V7.18667H33.6V10.78H25.0067V0ZM35.3167 0H43.9133V3.12667H38.9133V3.75H43.9133V10.9367H35.3167V7.65667H40.3167V7.03H35.3167V0ZM45.6333 0H54.2233V3.12667H49.2233V3.75H54.2233V10.9367H45.6333V7.65667H50.6333V7.03H45.6333V0Z" fill="#333333"/>
<path fill-rule="evenodd" clip-rule="evenodd" d="M39.97 80L16.8233 73.5733L10 15.7233H70L63.18 73.5667L39.97 80ZM23.49 41.91L24.1267 49.0033H48.7167L47.8933 58.2033L39.98 60.3433H39.9733L32.0733 58.21L31.5667 52.5533H24.4433L25.4367 63.6933L39.97 67.7267L54.5267 63.6933L56.3 43.8133L56.4733 41.91L57.7533 27.5467H22.2133L22.86 34.6433H49.98L49.3333 41.91H23.49Z" fill="#333333"/>
</svg>
