<svg width="80" height="80" viewBox="0 0 80 80" fill="none" xmlns="http://www.w3.org/2000/svg">
<path d="M28.3333 30C25.2391 30 22.2716 28.7709 20.0837 26.5829C17.8958 24.395 16.6666 21.4275 16.6666 18.3334C16.6666 15.2392 17.8958 12.2717 20.0837 10.0838C22.2716 7.89585 25.2391 6.66669 28.3333 6.66669H51.6666C54.7608 6.66669 57.7283 7.89585 59.9162 10.0838C62.1041 12.2717 63.3333 15.2392 63.3333 18.3334C63.3333 21.4275 62.1041 24.395 59.9162 26.5829C57.7283 28.7709 54.7608 30 51.6666 30H28.3333ZM28.3333 30C25.2391 30 22.2716 31.2292 20.0837 33.4171C17.8958 35.605 16.6666 38.5725 16.6666 41.6667C16.6666 44.7609 17.8958 47.7283 20.0837 49.9163C22.2716 52.1042 25.2391 53.3334 28.3333 53.3334M28.3333 53.3334H40M28.3333 53.3334C25.2391 53.3334 22.2716 54.5625 20.0837 56.7504C17.8958 58.9384 16.6666 61.9058 16.6666 65C16.6666 68.0942 17.8958 71.0617 20.0837 73.2496C22.2716 75.4375 25.2391 76.6667 28.3333 76.6667C31.4275 76.6667 34.3949 75.4375 36.5829 73.2496C38.7708 71.0617 40 68.0942 40 65V6.66669" stroke="#333333" stroke-width="4" stroke-linecap="round" stroke-linejoin="round"/>
<path d="M51.6667 53.3333C58.11 53.3333 63.3333 48.11 63.3333 41.6667C63.3333 35.2233 58.11 30 51.6667 30C45.2233 30 40 35.2233 40 41.6667C40 48.11 45.2233 53.3333 51.6667 53.3333Z" stroke="#333333" stroke-width="4" stroke-linecap="round" stroke-linejoin="round"/>
</svg>
