<svg width="80" height="80" viewBox="0 0 80 80" fill="none" xmlns="http://www.w3.org/2000/svg">
<g clip-path="url(#clip0_7_52)">
<path d="M0 0H80V80H0V0ZM73.4467 60.92C72.8633 57.27 70.4867 54.2033 63.4367 51.3433C60.9833 50.1933 58.2567 49.3933 57.4467 47.5433C57.1433 46.4433 57.0967 45.8433 57.2933 45.1933C57.7933 43.04 60.3433 42.3933 62.3433 42.9933C63.6433 43.3933 64.8433 44.3933 65.5967 45.9933C69.0433 43.74 69.0433 43.74 71.4467 42.2433C70.5467 40.8433 70.1 40.24 69.4933 39.6433C67.3933 37.2933 64.5967 36.0933 60.0467 36.1967L57.6967 36.4933C55.4433 37.0433 53.2967 38.2433 51.9967 39.8433C48.1967 44.1467 49.2933 51.6467 53.8933 54.7467C58.4433 58.1467 65.0967 58.8933 65.9467 62.0967C66.7467 65.9967 63.0467 67.2467 59.3933 66.7967C56.69 66.1967 55.1933 64.8433 53.5433 62.3433L47.4433 65.8467C48.1433 67.4467 48.9433 68.1433 50.1433 69.5433C55.9433 75.3967 70.4433 75.0967 73.0467 66.1967C73.1433 65.8967 73.8467 63.8467 73.2933 60.6967L73.4467 60.92ZM43.5033 36.77H36.01C36.01 43.23 35.98 49.65 35.98 56.12C35.98 60.2267 36.19 63.9967 35.52 65.1567C34.42 67.4533 31.5867 67.16 30.3 66.7567C28.98 66.1033 28.31 65.2033 27.5333 63.9067C27.3233 63.5567 27.1667 63.2533 27.11 63.2533L21.0267 67.0033C22.0433 69.1033 23.5267 70.91 25.44 72.06C28.29 73.76 32.12 74.31 36.13 73.41C38.74 72.6567 40.99 71.1067 42.1667 68.7067C43.8667 65.6067 43.5067 61.8067 43.49 57.5533C43.53 50.7067 43.49 43.8567 43.49 36.9567L43.5033 36.77Z" fill="#333333"/>
</g>
<defs>
<clipPath id="clip0_7_52">
<rect width="80" height="80" fill="white"/>
</clipPath>
</defs>
</svg>
