<svg width="48" height="48" viewBox="0 0 48 48" fill="none" xmlns="http://www.w3.org/2000/svg">
<path d="M39.6 24C39.6 15.3825 32.6175 8.39999 24 8.39999C15.3825 8.39999 8.39999 15.3825 8.39999 24C8.39999 32.6175 15.3825 39.6 24 39.6C32.6175 39.6 39.6 32.6175 39.6 24ZM4.79999 24C4.79999 13.395 13.395 4.79999 24 4.79999C34.605 4.79999 43.2 13.395 43.2 24C43.2 34.605 34.605 43.2 24 43.2C13.395 43.2 4.79999 34.605 4.79999 24ZM18.0975 28.755C19.2225 29.925 21.18 31.2 24 31.2C26.82 31.2 28.7775 29.925 29.9025 28.755C30.5925 28.035 31.7325 28.0125 32.445 28.7025C33.1575 29.3925 33.1875 30.5325 32.4975 31.245C30.84 32.97 27.9975 34.8 24 34.8C20.0025 34.8 17.16 32.97 15.5025 31.245C14.8125 30.525 14.835 29.385 15.555 28.7025C16.275 28.02 17.415 28.035 18.0975 28.755ZM15.6 20.4C15.6 19.0725 16.6725 18 18 18C19.3275 18 20.4 19.0725 20.4 20.4C20.4 21.7275 19.3275 22.8 18 22.8C16.6725 22.8 15.6 21.7275 15.6 20.4ZM30 18C31.3275 18 32.4 19.0725 32.4 20.4C32.4 21.7275 31.3275 22.8 30 22.8C28.6725 22.8 27.6 21.7275 27.6 20.4C27.6 19.0725 28.6725 18 30 18Z" fill="#333333"/>
</svg>
